<?xml version="1.0" standalone="no"?>
<!DOCTYPE svg PUBLIC "-//W3C//DTD SVG 20010904//EN"
 "http://www.w3.org/TR/2001/REC-SVG-20010904/DTD/svg10.dtd">
<svg version="1.0" xmlns="http://www.w3.org/2000/svg"
 width="222.000000pt" height="222.000000pt" viewBox="0 0 222.000000 222.000000"
 preserveAspectRatio="xMidYMid meet">
<metadata>
Created by potrace 1.11, written by Peter Selinger 2001-2013
</metadata>
<g transform="translate(0.000000,222.000000) scale(0.100000,-0.100000)"
fill="#000000" stroke="none">
<path d="M1066 1786 c-97 -36 -166 -134 -166 -235 1 -116 73 -210 189 -246
l24 -7 -6 70 c-6 73 1 92 36 92 10 0 15 5 12 10 -8 13 -58 13 -72 -1 -13 -13
-38 25 -29 46 4 11 17 10 73 -6 81 -23 73 -22 73 -5 0 9 -25 20 -65 31 -37 10
-65 23 -65 31 0 10 16 8 67 -7 81 -23 83 -23 83 -6 0 8 -28 20 -70 31 -38 10
-70 22 -70 27 0 12 6 12 80 -11 36 -11 66 -20 68 -20 1 0 2 7 2 15 0 9 -22 21
-62 32 -34 10 -63 24 -65 30 -3 8 18 5 63 -7 43 -13 72 -16 78 -10 10 10 -17
23 -90 41 -36 9 -42 14 -33 25 25 30 135 -1 145 -41 7 -29 -41 -193 -64 -219
-11 -12 -22 -29 -26 -39 -3 -11 -15 -21 -26 -24 -16 -4 -20 -14 -20 -44 0 -36
2 -39 28 -39 80 0 172 62 214 144 26 50 27 144 4 201 -21 50 -69 101 -120 127
-51 26 -139 33 -190 14z"/>
<path d="M466 1239 c-24 -19 -26 -26 -26 -100 0 -94 13 -114 85 -125 61 -9
171 0 190 16 10 8 15 31 15 72 l0 59 -77 -3 c-76 -3 -78 -4 -78 -28 0 -22 5
-26 45 -31 62 -7 29 -21 -41 -17 l-54 3 -3 49 c-2 32 1 52 10 57 22 15 105 10
122 -6 8 -8 28 -15 45 -15 28 0 31 3 31 29 0 48 -29 61 -141 61 -82 0 -100 -3
-123 -21z"/>
<path d="M776 1239 c-24 -19 -26 -26 -26 -100 0 -65 3 -82 19 -98 26 -26 76
-35 168 -29 105 7 118 22 118 129 0 111 -10 119 -150 119 -88 0 -106 -3 -129
-21z m202 -92 c4 -52 -11 -67 -68 -67 -72 0 -80 6 -80 54 0 24 3 46 7 50 4 4
37 6 73 4 l65 -3 3 -38z"/>
<path d="M1080 1140 l0 -120 35 0 35 0 0 120 0 120 -35 0 -35 0 0 -120z"/>
<path d="M1177 1253 c-4 -3 -7 -57 -7 -120 l0 -113 40 0 39 0 3 77 3 77 58
-77 57 -77 55 0 55 0 0 120 0 120 -35 0 -34 0 -3 -81 -3 -81 -59 81 -60 81
-51 0 c-29 0 -55 -3 -58 -7z"/>
<path d="M1532 1240 c-19 -18 -22 -31 -22 -104 0 -91 8 -106 65 -121 26 -7 27
-9 9 -12 -49 -9 -75 -84 -60 -168 12 -63 33 -75 135 -75 85 0 91 1 111 27 29
37 23 67 -14 71 -19 2 -32 -2 -38 -12 -7 -12 -24 -16 -63 -16 -54 0 -54 0 -60
34 -11 55 7 76 66 76 35 0 51 -4 55 -15 4 -9 19 -15 35 -15 25 0 29 4 29 29 0
36 -23 61 -58 62 -22 1 -19 4 17 15 55 17 61 26 61 92 l0 52 -80 0 -80 0 0
-30 c0 -28 2 -30 40 -30 22 0 40 -5 40 -10 0 -7 -24 -10 -62 -8 -58 3 -63 5
-72 31 -6 17 -6 37 0 55 9 25 14 27 67 30 44 2 59 0 63 -12 4 -11 19 -16 45
-16 35 0 39 3 39 25 0 14 -9 34 -20 45 -17 17 -33 20 -123 20 -90 0 -106 -3
-125 -20z"/>
<path d="M442 883 l3 -118 33 -3 c30 -3 32 -1 32 27 l0 31 68 0 c86 0 107 18
107 90 0 79 -17 90 -142 90 l-104 0 3 -117z m168 42 c19 -23 2 -35 -51 -35
-46 0 -49 2 -49 25 0 23 4 25 44 25 26 0 48 -6 56 -15z"/>
<path d="M700 905 c0 -88 2 -98 25 -120 21 -22 33 -25 103 -25 69 0 81 3 100
23 19 21 22 34 22 120 l0 97 -35 0 -35 0 0 -85 0 -85 -55 0 -55 0 0 85 0 85
-35 0 -35 0 0 -95z"/>
<path d="M964 987 c-2 -7 -3 -60 -2 -118 l3 -104 109 -3 c91 -2 112 0 127 14
20 18 27 88 10 98 -5 4 -4 19 2 36 9 25 9 36 -4 58 -14 27 -17 27 -127 30 -87
2 -114 0 -118 -11z m176 -62 c0 -5 -25 -11 -55 -13 -45 -2 -55 0 -55 13 0 13
10 15 55 13 30 -2 55 -7 55 -13z m10 -85 c0 -6 -27 -10 -60 -10 -33 0 -60 4
-60 10 0 6 27 10 60 10 33 0 60 -4 60 -10z"/>
<path d="M1232 883 l3 -118 100 0 100 0 3 33 3 32 -70 0 -71 0 0 85 0 85 -35
0 -36 0 3 -117z"/>
<path d="M1450 880 l0 -120 30 0 30 0 0 120 0 120 -30 0 -30 0 0 -120z"/>
<path d="M461 683 c1 -27 3 -40 6 -31 6 22 45 27 59 9 12 -16 91 -24 99 -11 3
5 21 4 41 -2 30 -8 39 -7 53 7 15 16 14 17 -6 10 -18 -5 -23 -2 -23 10 0 12 5
15 16 11 10 -4 14 -1 11 6 -2 8 -18 12 -38 11 -19 -1 -28 0 -21 3 17 8 15 21
-3 21 -8 0 -15 -9 -15 -19 0 -16 -3 -17 -22 -6 -13 7 -26 18 -30 23 -4 6 -8 2
-8 -7 0 -10 -4 -18 -10 -18 -5 0 -10 -9 -10 -20 0 -11 -4 -20 -10 -20 -5 0
-10 7 -10 15 0 24 -32 55 -57 55 -21 0 -23 -4 -22 -47z m49 17 c0 -5 -9 -10
-20 -10 -11 0 -20 5 -20 10 0 6 9 10 20 10 11 0 20 -4 20 -10z m110 -25 c0 -8
-4 -15 -9 -15 -13 0 -22 16 -14 24 11 11 23 6 23 -9z"/>
<path d="M760 690 c0 -22 5 -40 10 -40 6 0 10 5 10 10 0 14 27 13 32 -2 4 -11
159 -20 186 -10 22 8 14 48 -13 60 -14 6 -25 8 -25 3 0 -16 -60 -7 -60 9 -1
13 -2 13 -13 0 -15 -18 -49 -20 -60 -2 -4 6 -21 12 -37 12 -28 0 -30 -2 -30
-40z m50 10 c0 -5 -7 -10 -15 -10 -8 0 -15 5 -15 10 0 6 7 10 15 10 8 0 15 -4
15 -10z m184 -25 c-4 -8 -8 -15 -10 -15 -2 0 -4 7 -4 15 0 8 4 15 10 15 5 0 7
-7 4 -15z"/>
<path d="M1226 695 c-8 -41 -2 -55 24 -55 33 0 48 11 43 31 -3 10 -9 17 -13
14 -4 -2 -16 3 -26 11 -18 15 -18 15 4 11 14 -4 22 0 22 9 0 8 -10 14 -24 14
-19 0 -25 -7 -30 -35z m29 -25 c3 -5 1 -10 -4 -10 -6 0 -11 5 -11 10 0 6 2 10
4 10 3 0 8 -4 11 -10z"/>
<path d="M1330 690 c0 -22 5 -40 10 -40 6 0 10 8 10 18 1 16 1 16 11 0 13 -24
24 -23 37 5 10 21 11 21 11 -8 1 -21 4 -26 10 -16 7 10 10 10 13 1 3 -9 14
-10 36 -5 24 5 32 12 32 28 1 22 1 22 16 2 8 -11 25 -20 37 -21 12 -1 30 -4
40 -9 10 -4 23 -2 31 4 8 7 17 8 20 3 3 -5 19 -7 36 -4 21 3 30 10 30 23 0 11
5 19 10 19 6 0 10 -7 10 -16 0 -22 25 -44 49 -44 17 0 21 6 21 35 0 39 -21 55
-44 36 -10 -8 -16 -9 -21 -1 -3 5 -17 7 -30 4 -13 -3 -32 -1 -43 5 -12 6 -23
7 -26 2 -3 -5 -14 -7 -25 -4 -12 3 -25 -4 -36 -19 l-17 -23 8 25 c6 22 5 23
-10 11 -14 -12 -16 -11 -16 8 0 21 -1 21 -25 5 -16 -10 -34 -14 -50 -10 -20 5
-27 2 -35 -16 -8 -21 -9 -19 -10 12 l-1 35 -23 -28 -22 -28 -12 26 c-17 37
-32 30 -32 -15z m340 -9 c0 -6 -4 -13 -10 -16 -5 -3 -10 1 -10 9 0 9 5 16 10
16 6 0 10 -4 10 -9z m112 -6 c0 -5 -5 -11 -11 -13 -6 -2 -11 4 -11 13 0 9 5
15 11 13 6 -2 11 -8 11 -13z m-165 -11 c-3 -3 -12 -4 -19 -1 -8 3 -5 6 6 6 11
1 17 -2 13 -5z"/>
<path d="M1675 720 c-3 -5 -1 -10 4 -10 6 0 11 5 11 10 0 6 -2 10 -4 10 -3 0
-8 -4 -11 -10z"/>
<path d="M1027 703 c-4 -3 -7 -17 -7 -30 0 -30 29 -42 46 -19 12 16 13 16 17
-1 3 -12 5 -9 6 10 1 30 21 38 21 8 0 -12 9 -21 26 -25 34 -9 55 9 45 37 -6
17 -17 22 -47 24 -23 0 -44 -5 -50 -13 -10 -13 -12 -12 -18 1 -6 15 -27 20
-39 8z m33 -28 c0 -8 -7 -15 -15 -15 -8 0 -15 7 -15 15 0 8 7 15 15 15 8 0 15
-7 15 -15z m107 -11 c-3 -3 -12 -4 -19 -1 -8 3 -5 6 6 6 11 1 17 -2 13 -5z"/>
</g>
</svg>
